<svg version="1.1" viewBox="0 0 96 96" xmlns="http://www.w3.org/2000/svg" xmlns:xlink="http://www.w3.org/1999/xlink" id="Icons_Books" overflow="hidden"><path d=" M 90.6 36.3 L 85.4 34.4 L 85.4 23.5 L 90.6 21.3 L 55.4 8.3 L 12.6 23.3 C 8.5 25.3 8.4 30.8 8.4 35.3 C 8.4 36.8 8.6 38.3 8.9 39.7 C 5.5 41.9 5.4 47 5.4 51.3 C 5.4 54.8 6.2 58 8.4 60 C 7.9 61.7 8.2 63.8 8.2 66.3 C 8.2 70.8 9.4 74.9 13.4 76.3 L 41.2 87.8 L 90.4 67.4 L 85.2 65.5 L 85.2 54.5 L 90.4 52.3 L 82.4 49.3 L 82.4 39.7 L 90.6 36.3 Z M 13.8 30.3 L 41.6 41.2 L 81.5 25.1 L 81.5 33.7 L 41.6 50.3 L 13.8 39.3 L 13.8 30.3 Z M 81.3 64.8 L 41.4 81.3 L 13.5 70.3 L 13.5 62.5 L 38.4 72.7 L 81.4 55.7 L 81.3 64.8 Z M 78.5 49.8 L 38.6 66.3 L 10.8 55.3 L 10.8 46.3 L 39.4 57.7 L 78.6 41.3 L 78.6 49.8 Z"/></svg>